<?xml version="1.0" encoding="UTF-8" standalone="no"?>
<!-- Created with Inkscape (http://www.inkscape.org/) -->

<svg
   xmlns:dc="http://purl.org/dc/elements/1.1/"
   xmlns:cc="http://creativecommons.org/ns#"
   xmlns:rdf="http://www.w3.org/1999/02/22-rdf-syntax-ns#"
   xmlns:svg="http://www.w3.org/2000/svg"
   xmlns="http://www.w3.org/2000/svg"
   xmlns:sodipodi="http://sodipodi.sourceforge.net/DTD/sodipodi-0.dtd"
   xmlns:inkscape="http://www.inkscape.org/namespaces/inkscape"
   width="195mm"
   height="156mm"
   viewBox="0 0 690.94484 552.75563"
   id="svg2"
   version="1.1"
   inkscape:version="0.91 r13725"
   sodipodi:docname="S_and_A_logo.svg">
  <defs
     id="defs4" />
  <sodipodi:namedview
     id="base"
     pagecolor="#ffffff"
     bordercolor="#666666"
     borderopacity="1.0"
     inkscape:pageopacity="0.0"
     inkscape:pageshadow="2"
     inkscape:zoom="0.7"
     inkscape:cx="370.60772"
     inkscape:cy="467.55791"
     inkscape:document-units="px"
     inkscape:current-layer="layer1"
     showgrid="false"
     inkscape:window-width="1983"
     inkscape:window-height="1128"
     inkscape:window-x="65"
     inkscape:window-y="24"
     inkscape:window-maximized="1" />
  <metadata
     id="metadata7">
    <rdf:RDF>
      <cc:Work
         rdf:about="">
        <dc:format>image/svg+xml</dc:format>
        <dc:type
           rdf:resource="http://purl.org/dc/dcmitype/StillImage" />
        <dc:title></dc:title>
      </cc:Work>
    </rdf:RDF>
  </metadata>
  <g
     inkscape:label="Layer 1"
     inkscape:groupmode="layer"
     id="layer1"
     transform="translate(0,-499.60663)">
    <path
       style="fill:#e6b89e"
       d="m 321.30799,1046.887 c -50.5345,-4.3163 -99.41709,-23.5158 -139.18954,-54.66913 -26.45143,-20.71917 -50.13658,-47.90133 -66.80944,-76.67366 -5.2965,-9.14014 -10.03253,-18.43153 -9.76159,-19.1508 0.21795,-0.57868 0.69774,-0.6455 2.76337,-0.38503 1.37479,0.17334 2.51603,0.3459 2.53608,0.38332 0.02,0.0376 1.31561,2.56466 2.87903,5.61589 8.02347,15.65923 20.04719,33.64296 32.1958,48.15485 6.30628,7.53307 22.55165,23.90355 30.01766,30.2488 28.96649,24.61816 60.03948,41.49946 95.45006,51.85586 44.38561,12.9814 92.10635,13.6072 136.9666,1.796 61.94704,-16.3098 115.92181,-55.66504 151.5893,-110.53007 4.67386,-7.18944 9.87616,-16.17378 13.30237,-22.97308 l 2.39605,-4.75495 2.72278,-0.007 c 1.49754,-0.007 2.72279,0.0975 2.72279,0.22333 0,0.55745 -5.49262,11.31367 -8.52924,16.70282 -7.90461,14.02844 -17.94566,28.34157 -29.53207,42.0969 -6.15859,7.31144 -22.47371,23.65884 -29.89933,29.95844 -43.43163,36.84571 -95.07784,58.08761 -151.6045,62.35461 -8.10298,0.6116 -31.8641,0.4647 -40.21618,-0.2487 z m 9.5032,-81.2484 c -39.38981,-3.15321 -73.33312,-16.71567 -103.5668,-41.38132 -10.36534,-8.45643 -29.09283,-28.01428 -27.18353,-28.38894 1.70038,-0.33354 2.8885,0.51711 6.26724,4.48745 1.93645,2.27543 6.55997,7.1501 10.27448,10.83249 25.77763,25.55493 58.12688,42.55422 93.51547,49.14176 13.11259,2.44089 15.77983,2.66138 32.45556,2.68304 10.51274,0.0135 17.19128,-0.17298 20.2575,-0.56603 46.06463,-5.90442 83.89501,-25.55323 114.8316,-59.6427 5.59207,-6.16198 7.28578,-7.52512 8.44377,-6.79604 1.36509,0.85952 -16.78998,19.79367 -26.9978,28.15637 -11.65804,9.55073 -22.51945,16.54787 -35.89602,23.12484 -19.06292,9.37284 -37.99828,14.97133 -59.29244,17.53045 -5.81228,0.69862 -27.81345,1.2425 -33.10903,0.81863 z m -1.371,-45.68584 c -2.43115,-0.91442 -4.82657,-3.37924 -6.19669,-6.37614 -0.96331,-2.10714 -1.13062,-3.09086 -1.13734,-6.68697 -0.0102,-5.4995 0.91457,-8.3083 3.64894,-11.08195 2.20747,-2.23914 4.37351,-3.1204 7.66996,-3.1204 3.29646,0 5.4625,0.88126 7.66997,3.1204 2.68818,2.72678 3.65231,5.5936 3.65231,10.86004 0,6.41236 -1.99836,10.63216 -6.02777,12.72843 -2.34343,1.21906 -6.8062,1.4867 -9.27938,0.55659 z m 8.22767,-3.92965 c 1.97553,-1.31869 3.50356,-5.11554 3.55322,-8.82903 0.0805,-6.02023 -1.95354,-9.89123 -5.74381,-10.93098 -5.78113,-1.58591 -9.80669,2.70342 -9.80669,10.44938 0,7.34758 3.61436,11.38496 9.28558,10.37212 0.8421,-0.15034 2.06237,-0.62803 2.7117,-1.06149 z m -37.56965,3.60179 c 0,-0.84177 1.56237,-2.87654 6.675,-8.69347 2.49609,-2.8399 5.05397,-5.93758 5.68418,-6.88367 2.59057,-3.8891 0.5891,-8.25369 -3.7849,-8.25369 -2.18922,0 -3.93531,1.08023 -4.95901,3.06777 -0.68566,1.33126 -1.0851,1.61503 -2.43554,1.73014 -1.39355,0.11887 -1.61537,0.01 -1.61537,-0.79434 0,-1.18043 1.39489,-3.99051 2.47455,-4.98524 3.04726,-2.80738 9.86615,-2.80795 12.91059,0 1.40935,1.29937 2.16513,3.3095 2.16513,5.75848 0,2.87065 -1.14465,4.70709 -7.25867,11.64572 l -4.10633,4.66015 6.05591,0.12313 6.05591,0.12313 0,1.54124 0,1.54117 -8.93072,0 c -7.05741,0 -8.93073,-0.12157 -8.93073,-0.57953 z m 47.92097,-0.97393 0,-1.55338 3.70298,0 3.70298,0 0,-9.93831 0,-9.93837 -3.15842,1.02711 c -1.73714,0.5649 -3.32752,0.86052 -3.53417,0.65686 -0.21037,-0.20721 -0.1952,-0.92443 0.0344,-1.62951 0.35716,-1.09649 0.94088,-1.44509 4.51437,-2.6956 2.25729,-0.79001 4.54526,-1.43906 5.08438,-1.44247 l 0.98019,-0.007 0,11.98324 0,11.98323 3.26734,0 3.26734,0 0,1.55338 0,1.55338 -8.93073,0 -8.93072,0 0,-1.55338 z m 20.47532,0.94758 c 0,-0.81841 1.05282,-2.16742 7.03196,-9.01025 5.66796,-6.48664 6.47743,-7.76698 6.46336,-10.22292 -0.0161,-2.80866 -2.00423,-4.57131 -5.15599,-4.57131 -1.9462,0 -4.00833,1.44409 -4.95747,3.47162 -0.43895,0.93778 -0.91319,1.21835 -2.24736,1.32998 l -1.69104,0.14145 0.28774,-1.46568 c 0.78495,-3.99846 4.25286,-6.59145 8.7925,-6.57434 4.49899,0.017 7.49156,2.07156 8.48349,5.82446 0.9575,3.62252 -0.0161,5.56157 -6.55171,13.04535 -2.27625,2.60656 -4.20398,4.91728 -4.28383,5.13493 -0.0806,0.21964 2.48831,0.39575 5.7723,0.39575 l 5.91749,0 0,1.55338 0,1.55339 -8.93072,0 c -7.25589,0 -8.93072,-0.11362 -8.93072,-0.60581 z M 115.96814,836.3507 c -0.75732,-0.47046 -1.51109,-1.28595 -1.67505,-1.81222 -0.47447,-1.52299 0.13881,-3.75368 1.351,-4.91402 l 1.11735,-1.06965 14.51457,-0.28809 c 15.70066,-0.31174 18.27963,-0.66325 20.20774,-2.75412 1.37964,-1.49615 1.15973,-4.07622 -0.45145,-5.29641 -0.98388,-0.7452 -2.16644,-0.93068 -7.62833,-1.19683 -7.31365,-0.35634 -9.18937,-0.93636 -12.11309,-3.74552 -1.69036,-1.62418 -1.76203,-1.64783 -2.83011,-0.936 -2.85133,1.90041 -9.18966,4.72831 -11.42842,5.09892 -6.00643,0.99431 -10.566,-1.59847 -11.62053,-6.60785 -0.83164,-3.9506 -0.0926,-6.43644 5.37821,-18.09025 2.25019,-4.79336 3.73259,-8.49052 3.64801,-9.09838 -0.11364,-0.8167 -0.45315,-1.05062 -1.67763,-1.15571 -1.75465,-0.15062 -4.59286,1.24916 -8.6447,4.2634 l -2.57088,1.91256 -5.579529,12.06788 c -3.06873,6.6374 -6.0798,12.91704 -6.69126,13.95494 -1.48736,2.52454 -3.47973,3.50067 -5.73836,2.81122 -3.0188,-0.92145 -3.74777,-3.42234 -2.17318,-7.45574 1.14721,-2.93861 8.10999,-18.30647 12.47579,-27.53587 4.12211,-8.71421 5.36062,-10.31652 7.974459,-10.31652 1.99043,0 4.42339,1.73056 4.42339,3.14625 0,0.91953 1.06718,1.15863 1.55823,0.34923 0.55926,-0.92194 5.98065,-3.1297 8.27842,-3.37135 3.08178,-0.32403 5.12503,0.13194 6.72069,1.49984 1.92519,1.65031 2.75153,3.5606 2.75333,6.36485 0.002,3.36568 -0.91827,5.97302 -5.64099,15.97928 -2.24701,4.76091 -4.08549,9.06494 -4.08549,9.56443 0,2.07816 1.99439,2.53981 4.76086,1.10196 0.92214,-0.47926 3.13302,-2.05046 4.91307,-3.49157 2.82666,-2.28843 3.35536,-2.95076 4.17568,-5.23116 1.55596,-4.32539 4.02858,-8.11998 7.93265,-12.17368 5.78831,-6.01008 11.81053,-9.76611 20.40061,-12.72375 3.81968,-1.31506 5.31261,-1.6077 8.36925,-1.6403 2.82997,-0.0305 3.99376,0.14252 4.86315,0.72191 2.21852,1.47846 1.9357,5.48935 -0.47643,6.75663 -0.62516,0.3285 -3.1778,1.14506 -5.67251,1.81463 -9.10825,2.44479 -14.19938,5.245 -19.73364,10.854 -6.13304,6.21588 -8.12792,11.95547 -5.16159,14.85069 1.09051,1.0644 1.63246,1.24803 3.62979,1.22971 1.29133,-0.0121 3.07309,-0.33013 3.95946,-0.70749 1.48625,-0.63264 1.8381,-1.17908 4.52463,-7.02732 4.83687,-10.52927 6.39308,-13.35518 7.95252,-14.44109 2.43612,-1.69633 5.59471,-1.08719 6.55038,1.2633 0.70892,1.74362 -0.46238,5.50469 -4.39521,14.11316 -3.86258,8.45473 -3.97887,9.08148 -2.22409,11.98685 2.98276,4.93865 3.36522,9.36049 1.18815,13.73737 -1.29035,2.5942 -4.42697,5.59672 -7.03764,6.73681 -3.37503,1.47385 -6.90397,1.753 -22.1824,1.75477 -13.86052,0 -14.90038,-0.0533 -16.18888,-0.8537 z m -97.730274,-6.13151 c -1.888288,-1.74774 -2.380044,-4.92651 -1.752095,-11.32567 0.909307,-9.26639 3.441708,-20.02872 6.796698,-28.88488 0.818421,-2.16039 1.488038,-4.00783 1.488038,-4.1054 0,-0.0976 -2.401498,-0.19195 -5.336652,-0.20977 -7.557641,-0.0462 -9.8217616,-0.43836 -11.0722306,-1.91938 -1.201753,-1.42336 -1.360258,-4.00868 -0.337015,-5.49702 1.342937,-1.95324 2.5500986,-2.1993 12.4628306,-2.54037 l 9.439753,-0.32474 2.569798,-4.05235 c 10.2323,-16.13551 27.35303,-29.5465 42.87361,-33.58366 4.70143,-1.2229 11.03264,-1.31429 14.30652,-0.20643 4.29915,1.45474 6.97427,5.20438 6.96722,9.7656 -0.006,4.16747 -0.81253,6.15353 -15.61296,38.46671 -15.33001,33.46941 -14.84603,32.54675 -17.64063,33.62918 -2.68432,1.03976 -6.37499,-1.31109 -6.38088,-4.06443 -0.003,-1.41626 1.33966,-4.79741 5.74245,-14.46069 2.41374,-5.29776 4.94315,-10.88049 5.62091,-12.40611 l 1.23228,-2.77393 -16.66172,0 -16.661728,0 -2.023156,5.21496 c -3.814809,9.83314 -6.37192,20.55315 -7.307909,30.63646 -0.622052,6.70131 -0.798771,7.44608 -2.075294,8.74659 -1.606102,1.63625 -4.811558,1.58569 -6.637838,-0.10467 z m 61.813665,-66.90642 c 6.07614,-13.38558 6.57462,-15.29955 4.32414,-16.60269 -3.40862,-1.9737 -15.74865,3.13595 -25.49386,10.55618 -4.71929,3.59341 -11.88146,10.81679 -14.63231,14.75745 -1.12926,1.61765 -2.05319,3.06806 -2.05319,3.22315 0,0.15502 7.29352,0.22951 16.20784,0.16553 l 16.20783,-0.11639 5.43955,-11.98323 z m 131.398459,56.09708 c -2.29209,-0.56355 -4.30454,-2.01105 -5.51962,-3.97005 l -0.98718,-1.59159 -3.35135,1.43998 c -6.99411,3.00507 -10.21978,3.81453 -16.17339,4.05839 -6.77306,0.27751 -8.9063,-0.22156 -11.5471,-2.7015 -3.19737,-3.00252 -3.9563,-8.07801 -1.8399,-12.30435 0.73463,-1.46703 5.7343,-6.62256 6.4377,-6.63839 0.16604,-0.007 0.56045,-0.17384 0.87646,-0.378 0.46916,-0.30307 0.43859,-0.79462 -0.16668,-2.67984 -1.63378,-5.08877 -0.006,-10.33413 4.33141,-13.95473 3.99813,-3.33769 12.96094,-7.39097 16.34329,-7.39097 2.15971,0 3.84748,1.34063 4.21748,3.3499 0.47897,2.60102 -0.50243,3.48803 -7.7982,7.04771 -3.6359,1.77401 -6.93911,3.60548 -7.34045,4.06989 -1.0659,1.23348 -1.27451,4.6169 -0.28466,4.6169 0.2807,0 1.75029,-0.50532 3.26574,-1.12298 3.82995,-1.56098 5.50775,-1.5553 7.12597,0.0241 0.98522,0.96164 1.29597,1.66295 1.29597,2.9249 0,2.30597 -1.75795,3.67294 -9.10773,7.08193 -6.8802,3.19127 -9.51133,4.90031 -9.88613,6.42167 -1.20436,4.88866 7.23876,3.92844 19.64733,-2.23453 l 5.66339,-2.81278 8.24017,-18.12305 c 14.20857,-31.2495 15.81861,-34.30535 18.42578,-34.97201 2.59213,-0.66282 5.35396,1.46782 5.35396,4.13026 0,1.6861 0.29821,0.98926 -12.06179,28.18336 -5.8629,12.89935 -10.76791,24.13199 -10.90001,24.96134 -0.32607,2.04705 0.46839,2.97411 2.22917,2.60116 1.90121,-0.40264 4.39377,-1.94615 9.49627,-5.88063 3.87428,-2.98732 4.65727,-3.41588 6.24148,-3.41588 0.9963,0 2.1563,0.29158 2.57777,0.64792 0.42147,0.3564 1.49672,2.25859 2.38944,4.22718 1.75538,3.87078 2.84635,4.9209 5.57413,5.3653 1.80441,0.29391 4.40939,-0.55567 5.93481,-1.93564 1.24624,-1.12739 2.43893,-4.07324 2.44981,-6.05077 0.006,-0.95717 -0.91084,-4.52097 -2.03576,-7.91937 -1.60769,-4.85685 -2.14369,-6.03011 -2.50496,-5.48296 -0.2528,0.38289 -1.13999,1.9171 -1.97155,3.40948 -0.84245,1.51191 -2.03848,2.99073 -2.70115,3.33983 -1.93908,1.02157 -3.99789,0.79497 -5.35698,-0.58961 -1.98921,-2.02661 -1.51232,-4.21072 3.18121,-14.56977 5.15566,-11.37899 6.6071,-14.02652 8.09692,-14.76923 1.59877,-0.79704 3.9779,-0.30791 5.36224,1.10245 0.97325,0.99154 1.06354,1.36172 0.83165,3.4102 -0.92315,8.15527 -1.25541,6.44389 3.61219,18.60579 1.24507,3.11081 2.56696,7.17084 2.93756,9.02218 1.6525,8.25548 -1.82177,15.94768 -9.00616,19.93996 -2.3002,1.27821 -2.61387,1.33147 -7.84161,1.33147 -5.13777,0 -5.57811,-0.0711 -7.79055,-1.25783 -1.28974,-0.6918 -3.27047,-2.1398 -4.40163,-3.21768 -1.13116,-1.07796 -2.16219,-1.95993 -2.2912,-1.95993 -0.129,0 -1.93152,1.08542 -4.00561,2.41206 -5.65803,3.6189 -11.30755,5.17249 -15.26795,4.19871 z m 232.60488,0.0604 c -4.34355,-0.66992 -8.47055,-3.27741 -10.04976,-6.34937 -2.50505,-4.87311 -1.25048,-12.83808 3.09225,-19.63184 3.56741,-5.58096 12.15594,-13.15685 18.74398,-16.53402 4.44414,-2.2782 10.05486,-3.32371 12.58256,-2.3446 1.48342,0.57456 2.59771,2.42967 2.53184,4.21512 -0.10935,2.96325 -4.89705,13.87747 -6.872,15.66576 -1.71152,1.54976 -4.70535,1.19094 -6.15924,-0.73824 -0.70552,-0.93615 -0.6637,-3.40033 0.0945,-5.56924 0.3381,-0.96704 0.54408,-1.83026 0.45769,-1.91831 -0.36015,-0.36692 -4.14882,2.46759 -6.93774,5.19039 -9.18383,8.96637 -11.30486,17.31913 -4.67229,18.39964 3.7063,0.60382 11.33614,-1.5842 19.93725,-5.71744 3.87241,-1.86079 4.94632,-2.57389 5.1113,-3.39379 1.0641,-5.28725 1.99996,-8.25888 3.67384,-11.66539 2.57553,-5.24151 7.92865,-10.90392 12.40926,-13.1263 7.63768,-3.78827 16.10833,-1.37479 19.0549,5.4292 1.49757,3.45813 1.70616,10.41664 0.46435,15.48958 -3.48516,14.23686 -14.43436,24.28154 -24.62601,22.59168 -1.2957,-0.21488 -3.12245,-0.78908 -4.05943,-1.27608 -1.64783,-0.85648 -4.32186,-3.50564 -5.25724,-5.20836 -0.44008,-0.80123 -0.53527,-0.7942 -2.7778,0.20544 -12.25478,5.46286 -20.1095,7.30924 -26.74225,6.28617 z m 46.58663,-11.6994 c 3.49461,-3.56024 6.83562,-11.14061 7.47288,-16.95526 0.68784,-6.27595 -3.43501,-9.29146 -7.70212,-5.63351 -4.51093,3.86695 -8.96401,15.8053 -7.82384,20.97503 0.6008,2.72415 1.52873,3.53518 4.04488,3.53518 1.92189,0 2.30016,-0.18137 4.0082,-1.92144 z m 32.03669,11.68562 c -2.5863,-0.45199 -5.06116,-1.76968 -6.80443,-3.62273 -5.2243,-5.5534 -5.06124,-17.91272 0.36794,-27.8888 2.50488,-4.6027 7.85538,-10.00492 11.90757,-12.02272 2.8483,-1.41824 3.31827,-1.5139 7.44013,-1.5139 4.13536,0 4.5277,0.0806 6.5288,1.34099 4.47328,2.81753 6.29772,6.86762 6.29772,13.98044 0,16.74634 -13.14428,31.9278 -25.73773,29.72672 z m 8.23408,-11.87238 c 4.95359,-5.07209 8.68206,-16.44866 7.00095,-21.36168 -0.80891,-2.36406 -3.6071,-3.3443 -5.96455,-2.0896 -5.05619,2.69107 -10.7261,16.32568 -9.2068,22.13984 0.7227,2.76548 1.48403,3.41964 3.98006,3.41964 1.96341,0 2.2938,-0.16624 4.19034,-2.1082 z m 26.30138,11.79377 c -1.25109,-0.28497 -2.5067,-1.04493 -3.77125,-2.28253 -1.55957,-1.52632 -1.9533,-2.24873 -2.22057,-4.07437 -0.59091,-4.03602 0.46134,-7.34169 6.62716,-20.81936 1.99996,-4.3717 3.63629,-7.98876 3.63629,-8.03797 0,-0.049 -0.96966,-0.2065 -2.15479,-0.34945 -3.83294,-0.46249 -5.22726,-1.68546 -5.24521,-4.6007 -0.009,-1.46029 2.01124,-3.63169 3.61437,-3.88484 0.76425,-0.12072 2.91599,-0.34491 4.78164,-0.49829 l 3.39206,-0.27887 2.80486,-5.87331 c 1.54271,-3.23032 3.17494,-6.21445 3.62718,-6.63143 1.89162,-1.74405 5.22017,-1.64868 6.85893,0.19649 1.26085,1.41967 0.98212,4.03993 -0.88506,8.32108 -0.88779,2.03556 -1.54993,3.75596 -1.47138,3.82306 0.0785,0.0675 1.96667,0.32424 4.19587,0.57129 3.29513,0.36522 4.26012,0.64621 5.16021,1.50283 0.94583,0.90007 1.07639,1.33566 0.89595,2.98952 -0.11824,1.08385 -0.58316,2.31498 -1.05627,2.79694 -1.01675,1.03585 -4.88053,1.68099 -10.14373,1.69363 l -3.7046,0.009 -3.01362,6.54643 c -4.72818,10.27107 -7.21314,16.22548 -7.21711,17.29349 -0.0118,3.22834 4.89264,1.62184 14.95752,-4.89917 2.63361,-1.70634 3.93149,-2.26328 5.66339,-2.43016 1.66094,-0.16013 2.88803,-0.65892 4.70593,-1.91299 l 2.45913,-1.6964 -0.64733,-1.90141 c -2.34111,-6.87642 0.99545,-13.16728 9.30116,-17.53678 6.60873,-3.4768 11.57588,-4.80493 13.67987,-3.65781 1.2767,0.69613 2.2542,2.95047 1.93043,4.45208 -0.38563,1.78872 -1.5624,2.60784 -7.69332,5.355 -7.28216,3.26299 -9.51641,5.52684 -8.39445,8.5055 0.20119,0.53408 0.78312,0.4282 3.37625,-0.61418 4.71277,-1.89452 7.22657,-1.66139 8.50758,0.78894 1.68469,3.22251 -0.1736,5.12747 -8.95908,9.18388 -7.47449,3.4511 -9.70252,5.03828 -9.70252,6.91186 0,1.81108 1.05827,2.47717 3.77709,2.37747 4.91047,-0.18016 12.15598,-2.9053 21.27251,-8.00089 4.59919,-2.5707 5.98001,-3.6466 11.48456,-8.94834 3.44129,-3.31454 6.43609,-6.50666 6.65518,-7.09372 0.58559,-1.56914 -0.48553,-2.97439 -2.53489,-3.32548 -1.32027,-0.22624 -1.75426,-0.12498 -2.09985,0.48991 -0.23961,0.42629 -1.24303,1.62461 -2.22981,2.66302 -1.37476,1.44665 -2.11981,1.88799 -3.18709,1.88799 -3.87346,0 -5.31945,-2.96013 -3.71257,-7.60018 1.5055,-4.34727 5.83364,-12.71238 7.17032,-13.85823 1.95558,-1.67637 4.41479,-1.62794 6.13127,0.12072 1.4575,1.48486 1.6413,3.1601 0.61997,5.65041 -0.3594,0.87635 -0.65347,1.64612 -0.65347,1.71067 0,0.0646 0.9312,0.25337 2.06932,0.41968 3.36719,0.49204 5.19285,1.17581 6.84598,2.56409 2.1517,1.8069 2.93425,3.55776 2.93425,6.56504 0,4.34691 -0.98765,5.87502 -9.44775,14.61741 -4.19626,4.33627 -7.65275,8.2613 -7.68116,8.72231 -0.14825,2.40737 0.70697,3.27925 3.2165,3.27925 3.46948,0 9.70517,-2.66032 18.61525,-7.94167 2.51467,-1.49054 5.00325,-2.71009 5.53016,-2.71009 1.53194,0 3.18012,1.80455 4.87522,5.33774 0.86733,1.80781 2.08408,3.65781 2.70383,4.11108 2.92719,2.14086 7.65493,0.97925 9.86566,-2.42406 1.58043,-2.43307 1.5025,-5.52791 -0.27995,-11.11156 -0.75649,-2.36981 -1.68537,-5.06449 -2.06426,-5.98828 l -0.68879,-1.6795 -1.45131,2.93286 c -1.81969,3.67734 -3.58619,5.27113 -5.84209,5.27113 -2.06117,0 -4.36908,-1.96426 -4.36908,-3.71853 0,-1.62433 1.54741,-5.56377 5.67798,-14.45523 4.51323,-9.71518 5.61873,-11.63527 7.12855,-12.38139 2.90823,-1.43721 6.67739,1.2028 6.19522,4.33917 -0.13387,0.8711 -0.35867,3.0817 -0.49947,4.91245 -0.24827,3.22791 -0.19464,3.47652 1.77185,8.21074 4.06666,9.79024 5.47205,14.48121 5.49697,18.3478 0.0414,6.3966 -2.16672,11.02876 -7.03188,14.75297 -2.94962,2.25789 -5.76951,3.07091 -10.64995,3.07048 -3.47627,-2.8e-4 -4.27916,-0.15864 -6.68646,-1.3189 -1.50471,-0.72517 -3.77878,-2.32343 -5.05348,-3.55158 l -2.31763,-2.23311 -5.45789,2.65982 c -7.36611,3.58978 -11.5253,4.57813 -18.41398,4.37581 -4.82041,-0.14159 -5.39398,-0.25223 -7.33591,-1.41512 -1.15869,-0.69385 -2.69308,-2.10905 -3.40975,-3.1449 l -1.3031,-1.88337 -4.92267,2.15798 c -9.05096,3.96771 -18.48398,5.52997 -23.87622,3.95421 -2.46937,-0.72162 -5.84871,-3.59624 -6.71726,-5.71403 -0.33675,-0.82103 -0.75101,-1.42684 -0.92056,-1.34617 -0.1696,0.0807 -2.95485,1.49139 -6.18951,3.13489 -5.62066,2.85574 -11.42092,4.8256 -13.90144,4.72114 -0.62057,-0.0263 -1.97234,-0.2398 -3.0039,-0.47478 z m -261.03624,-0.78773 c -7.59803,-0.27418 -8.3548,-0.4664 -11.61222,-2.94912 -4.26411,-3.25006 -5.01505,-10.71958 -1.75812,-17.48813 1.84969,-3.84408 6.83082,-9.11244 11.8232,-12.50503 2.16875,-1.47378 4.00628,-2.73921 4.0834,-2.81214 0.0771,-0.0729 -0.18382,-1.10011 -0.57986,-2.28274 -0.96505,-2.8818 -0.92325,-7.34723 0.0976,-10.42786 2.80592,-8.46744 11.48515,-16.10753 21.68865,-19.0918 4.92065,-1.43919 13.43612,-1.48741 16.33669,-0.0925 6.44468,3.09923 7.15015,8.64518 2.34587,18.44168 -1.68227,3.43029 -2.76386,4.36012 -5.07201,4.36012 -2.04632,0 -3.54946,-0.95426 -4.26139,-2.70527 -0.47891,-1.17794 -0.37306,-1.83934 0.9228,-5.76601 1.80307,-5.46357 1.65711,-5.89632 -2.05144,-6.08258 -4.72617,-0.23732 -11.29662,2.64888 -16.00023,7.02846 -4.67456,4.35245 -5.89292,9.39556 -3.35974,13.9068 2.29992,4.09581 2.35959,4.50825 0.89758,6.20465 -0.70842,0.82196 -3.39878,2.96453 -5.97857,4.7612 -6.11461,4.25843 -11.58151,9.7313 -12.15376,12.16701 -0.57813,2.4607 -0.15929,4.17975 1.28622,5.27894 1.16757,0.88793 1.82121,0.9414 13.087,1.071 l 11.85806,0.13641 3.58418,-7.90332 c 1.97131,-4.34684 3.58069,-8.03612 3.57642,-8.19831 -0.004,-0.16226 -1.49585,-0.43708 -3.31462,-0.6107 -4.2388,-0.4047 -5.60407,-1.42705 -5.60407,-4.19658 0,-1.5318 0.24497,-2.09087 1.36162,-3.10726 1.26917,-1.15529 1.71219,-1.26195 6.52478,-1.57071 7.80091,-0.50035 20.015,0.017 21.34416,0.9044 1.48612,0.99204 2.03593,2.66785 1.4593,4.44783 -0.79266,2.44685 -1.73814,2.94954 -6.5651,3.49037 l -4.40712,0.49381 -4.98883,10.91621 c -2.74386,6.0039 -5.52571,11.57137 -6.18188,12.37209 -0.92299,1.12639 -1.68246,1.53769 -3.35513,1.81727 -2.38208,0.39809 -13.88006,0.3944 -25.03345,-0.009 z m 68.52771,0.096 c -4.64593,-0.33276 -6.52198,-4.44534 -3.58331,-7.85511 0.79318,-0.92031 1.90612,-1.66324 2.72666,-1.82003 0.76255,-0.14579 11.18672,-0.40356 23.16482,-0.57292 20.81129,-0.29428 21.85575,-0.34846 23.52096,-1.22169 3.40713,-1.78651 4.0359,-5.34051 1.75586,-9.92446 -0.60127,-1.20883 -3.17567,-4.85053 -5.72089,-8.09264 -6.09794,-7.76762 -8.1994,-10.80799 -9.64766,-13.958 -1.08598,-2.36192 -1.19754,-3.06941 -1.18108,-7.49032 0.0144,-3.90053 0.21054,-5.41138 0.97511,-7.51489 3.66408,-10.08083 14.17009,-19.00118 26.49811,-22.49879 4.53232,-1.28588 11.89916,-1.37429 15.38533,-0.1847 2.81086,0.95922 5.93178,3.7137 7.06084,6.23192 2.13245,4.75615 0.10221,13.0031 -5.81372,23.61573 -1.30389,2.33899 -2.18716,3.39486 -3.28319,3.92475 -1.91562,0.92607 -3.99566,0.55489 -5.50456,-0.98237 -1.81441,-1.84851 -1.54253,-3.6351 1.76341,-11.58593 2.90179,-6.97896 3.59176,-10.08743 2.48858,-11.21183 -0.854,-0.87032 -3.45432,-1.21579 -6.041,-0.80257 -6.09686,0.97406 -13.64633,5.14288 -18.20958,10.05547 -3.20726,3.45274 -4.41709,6.09913 -4.39875,9.62174 0.0192,3.68927 1.34553,6.17291 7.33823,13.74184 8.80747,11.12399 10.37832,14.3176 10.38547,21.11392 0.006,5.66142 -0.82651,8.14108 -3.85011,11.46826 -1.70306,1.874 -3.18308,2.96573 -5.48755,4.04788 -3.04342,1.42919 -3.41947,1.49395 -10.58666,1.82479 -7.31374,0.33759 -35.33095,0.38687 -39.75532,0.0703 z m 13.80921,-116.32777 c 0,-1.66947 -0.12908,-6.96206 -0.28687,-11.76132 l -0.28683,-8.72593 1.38962,0 c 0.82302,0 1.49021,0.26698 1.63628,0.65476 0.21478,0.57018 0.42271,0.56198 1.6098,-0.0634 1.72695,-0.90981 5.36828,-0.9259 7.05715,-0.0312 2.75554,1.4598 4.12843,3.85636 4.12843,7.20675 0,3.35038 -1.37289,5.74695 -4.12843,7.20675 -1.7049,0.90319 -5.33552,0.8758 -7.09962,-0.0535 l -1.40566,-0.74054 0,4.67155 0,4.67154 -1.30693,0 -1.30694,0 0,-3.0354 z m 10.06432,-8.18561 c 2.10177,-1.43841 2.95533,-4.04007 2.08757,-6.36283 -0.7619,-2.03939 -3.00417,-3.71969 -4.96374,-3.71969 -0.76774,0 -2.06204,0.45645 -2.87617,1.01435 -1.43084,0.98048 -1.4846,1.12265 -1.6091,4.25738 -0.14163,3.5664 0.16445,4.25751 2.30687,5.20876 1.92586,0.85507 3.39236,0.73961 5.05457,-0.39798 z m -101.87374,3.1802 c -2.03471,-0.59866 -4.22637,-3.0309 -4.88255,-5.41853 -1.42629,-5.18985 1.74493,-9.79631 7.1494,-10.38509 3.69635,-0.4027 7.64129,3.35101 7.64129,7.27085 l 0,1.48358 -6.09903,0 c -3.96795,0 -6.09903,0.16278 -6.09903,0.46586 0,1.11245 1.43029,3.12692 2.69214,3.7917 1.608,0.84714 4.38309,0.62317 5.54432,-0.44745 0.78078,-0.71986 3.52596,-0.9897 3.52596,-0.34659 0,0.70889 -2.86525,3.0862 -4.31255,3.57813 -1.72376,0.58591 -3.1869,0.58805 -5.15995,0.008 z m 6.85863,-9.74627 c 0,-0.50699 -0.57304,-1.50559 -1.27343,-2.21912 -1.74816,-1.78097 -4.27139,-1.81279 -6.0916,-0.0768 -0.70385,0.67128 -1.40629,1.66989 -1.56098,2.21912 -0.27902,0.99066 -0.24466,0.9986 4.32237,0.9986 4.37004,0 4.60364,-0.0468 4.60364,-0.92178 z m 69.75671,9.79617 c -3.20606,-0.76864 -5.3392,-3.35284 -5.62053,-6.80904 -0.25352,-3.11452 0.462,-5.24406 2.32058,-6.90655 2.53004,-2.26309 5.89531,-2.67475 8.97627,-1.09801 0.98591,0.50457 1.19176,0.49526 1.40218,-0.0634 0.14232,-0.37788 0.80507,-0.65476 1.56723,-0.65476 l 1.32061,0 0,7.76691 0,7.76691 -1.32061,0 c -0.76216,0 -1.42491,-0.27688 -1.56723,-0.65475 -0.21086,-0.55985 -0.41413,-0.56845 -1.40218,-0.0593 -1.62068,0.83511 -3.94611,1.1268 -5.67632,0.71199 z m 5.57216,-3.45294 c 1.04346,-0.79368 1.12684,-1.11273 1.12684,-4.31189 0,-3.19916 -0.0834,-3.51821 -1.12684,-4.31189 -0.61975,-0.4714 -1.894,-0.95951 -2.83169,-1.08469 -2.23739,-0.2987 -4.47273,1.18902 -5.36166,3.56848 -0.55578,1.48768 -0.55778,1.94357 -0.0153,3.52906 1.22647,3.58577 5.24625,4.86432 8.20881,2.61092 z m 34.07015,3.40409 c -3.70146,-1.1267 -5.44321,-3.60788 -5.44321,-7.75411 0,-3.24896 1.1413,-5.36762 3.64104,-6.75911 3.41685,-1.90199 6.74352,-1.54111 9.54262,1.03521 3.71415,3.41846 3.21746,9.97372 -0.9531,12.57996 -1.7286,1.08021 -4.83748,1.49156 -6.78735,0.89804 z m 4.22763,-2.65126 c 3.74625,-1.33047 4.16712,-7.85094 0.63117,-9.77885 -2.34735,-1.27984 -5.48708,-0.43845 -6.79755,1.82158 -1.5424,2.66011 -0.52717,6.43984 2.08212,7.75177 1.59917,0.80405 2.29964,0.83929 4.08426,0.2055 z m -149.7852,-8.61531 0,-11.31749 1.10892,0 c 1.38543,0 1.7405,0.37038 8.91998,9.3045 l 5.87215,7.3073 0.11852,-8.3059 0.11853,-8.3059 1.73296,0 1.73297,0 0,11.31749 c 0,11.14168 -0.014,11.3175 -0.89993,11.3175 -1.61251,0 -2.3637,-0.74155 -8.72324,-8.61147 l -6.27787,-7.76885 -0.11853,8.19017 -0.11852,8.19015 -1.73297,0 -1.73297,0 0,-11.3175 z m 46.4792,10.09699 c -1.23956,-2.55187 -5.20021,-13.90811 -4.9423,-14.17087 0.14858,-0.15136 0.88417,-0.0955 1.63465,0.12405 1.26789,0.37098 1.49009,0.76019 3.13797,5.49668 l 1.77345,5.09744 1.76401,-5.45064 1.76401,-5.45065 1.31342,0.1313 c 1.2547,0.12543 1.39049,0.35308 3.03789,5.09332 0.94846,2.72912 1.86256,4.8751 2.03132,4.76883 0.16876,-0.10625 1.05908,-2.38802 1.9785,-5.07059 1.66435,-4.85604 1.67786,-4.87741 3.08751,-4.87979 0.84496,-0.001 1.41474,0.2213 1.41309,0.55239 -10e-4,0.30513 -1.14911,3.65044 -2.55022,7.43404 -2.20565,5.95621 -2.70244,6.93554 -3.70247,7.29861 -0.72506,0.26325 -1.29616,0.26325 -1.53421,0 -0.20856,-0.23064 -1.01609,-2.41655 -1.79453,-4.85758 -0.77844,-2.44103 -1.56734,-4.60794 -1.75311,-4.81537 -0.18576,-0.20742 -1.0862,1.93957 -2.00095,4.7711 -1.58743,4.91372 -1.7179,5.14824 -2.86418,5.14824 -0.87602,0 -1.36142,-0.33025 -1.79385,-1.22051 z m 29.7587,-10.09699 c 0,-14.70066 -0.39778,-14.59979 9.40969,-2.38628 l 6.49135,8.08385 0.11832,-8.50753 0.11832,-8.50753 1.51535,0 1.51535,0 0,11.31749 0,11.3175 -1.13215,0 c -1.35868,0 -1.98057,-0.65113 -9.27393,-9.70993 l -5.49496,-6.82506 -0.11853,8.26749 -0.11852,8.2675 -1.51515,0 -1.51514,0 0,-11.3175 z m 83.64582,4.54919 c 0,-3.72257 0.12908,-9.01516 0.28438,-11.76132 l 0.28244,-4.99301 1.24036,0 1.24037,0 0,11.76132 0,11.76132 -1.52475,0 -1.52476,0 0,-6.76831 z m 8.71094,-0.9986 0,-7.76691 1.30693,0 1.30694,0 0,7.76691 0,7.76691 -1.30694,0 -1.30693,0 0,-7.76691 z m -334.883249,7.04574 c -0.371,-0.16065 0.15621,-2.20951 1.79231,-6.96534 10.293979,-29.92251 24.862139,-56.69475 43.998079,-80.85627 10.7532,-13.57727 26.80241,-29.92794 40.12168,-40.8753 37.54564,-30.85948 82.63801,-50.61542 130.47571,-57.1642 13.6234,-1.865 19.82268,-2.25012 35.94072,-2.23277 18.64029,0.02 29.63637,0.96213 46.19032,3.95727 90.57079,16.38725 166.42022,79.80358 199.9973,167.21413 3.8241,9.95512 5.90112,16.42041 5.42954,16.90084 -0.26714,0.27212 -1.24991,0.28405 -2.66232,0.0323 l -2.23887,-0.39905 -2.50413,-7.10118 c -10.65226,-30.20754 -25.4567,-56.47623 -46.02368,-81.6634 -6.28519,-7.69707 -23.70219,-25.37083 -31.55391,-32.01908 -17.001,-14.39517 -32.28348,-24.58342 -51.4228,-34.28166 C 409.69119,516.41851 354.18262,508.00724 300.22568,517.22289 233.78283,528.5711 175.21947,565.04848 134.667,620.34446 119.36042,641.216 107.29008,664.24923 98.354311,689.63812 l -2.4993,7.10118 -2.10649,0.0861 c -1.15857,0.0474 -2.34302,-0.0163 -2.63211,-0.14151 z m 85.694249,-0.0177 c 0,-0.63891 6.16644,-12.25347 8.93475,-16.82868 11.17348,-18.46655 25.59417,-35.01977 42.47137,-48.75203 24.72965,-20.12146 53.27772,-33.07992 84.58598,-38.39503 12.36057,-2.09842 17.03524,-2.3913 33.79527,-2.11734 18.82169,0.30765 26.59896,1.3267 43.02526,5.63757 21.08152,5.53256 42.42935,15.62792 60.11903,28.43022 16.2097,11.7312 33.14924,29.14496 44.77822,46.03175 5.40169,7.84397 14.68733,24.15525 14.68733,25.79997 0,0.33537 -0.46361,0.49314 -1.19637,0.40713 -1.02724,-0.12058 -1.52271,-0.76787 -3.50454,-4.57867 -9.11239,-17.52175 -18.82806,-30.87164 -32.96718,-45.29866 -14.83647,-15.13854 -29.92346,-26.22522 -47.93617,-35.22588 -37.21346,-18.59492 -78.66906,-23.74611 -119.36676,-14.83226 -25.25798,5.53215 -49.85701,17.01646 -70.55226,32.93808 -20.88098,16.06449 -39.48424,38.2004 -51.09954,60.80303 -1.33476,2.59735 -2.72032,5.07197 -3.07902,5.49914 -0.61911,0.73731 -2.69537,1.10833 -2.69537,0.48166 z m 249.20638,-19.43379 c -1.15729,-1.4206 0.54247,-3.60285 2.05193,-2.63442 1.50834,0.96772 0.97097,3.27884 -0.76238,3.27884 -0.42052,0 -1.00084,-0.28999 -1.28955,-0.64442 z"
       id="path3365"
       inkscape:connector-curvature="0" />
  </g>
</svg>
